<?xml version="1.0" encoding="UTF-8" standalone="no"?>
<svg
   xmlns:dc="http://purl.org/dc/elements/1.1/"
   xmlns:cc="http://creativecommons.org/ns#"
   xmlns:rdf="http://www.w3.org/1999/02/22-rdf-syntax-ns#"
   xmlns:svg="http://www.w3.org/2000/svg"
   xmlns="http://www.w3.org/2000/svg"
   xmlns:sodipodi="http://sodipodi.sourceforge.net/DTD/sodipodi-0.dtd"
   xmlns:inkscape="http://www.inkscape.org/namespaces/inkscape"
   width="300"
   height="341.15"
   id="svg4258"
   version="1.1"
   inkscape:version="0.91 r13725"
   sodipodi:docname="rubiks-cube-310913.svg">
  <metadata
     id="metadata4312">
    <rdf:RDF>
      <cc:Work
         rdf:about="">
        <dc:format>image/svg+xml</dc:format>
        <dc:type
           rdf:resource="http://purl.org/dc/dcmitype/StillImage" />
      </cc:Work>
    </rdf:RDF>
  </metadata>
  <defs
     id="defs4310" />
  <sodipodi:namedview
     pagecolor="#ffffff"
     bordercolor="#666666"
     borderopacity="1"
     objecttolerance="10"
     gridtolerance="10"
     guidetolerance="10"
     inkscape:pageopacity="0"
     inkscape:pageshadow="2"
     inkscape:window-width="1366"
     inkscape:window-height="704"
     id="namedview4308"
     showgrid="false"
     inkscape:zoom="1.3835556"
     inkscape:cx="23.514303"
     inkscape:cy="170.575"
     inkscape:window-x="0"
     inkscape:window-y="27"
     inkscape:window-maximized="1"
     inkscape:current-layer="layer1" />
  <g
     id="layer1">
    <path
       id="path6177"
       d="m251.78 110.72l-21.94 6.5324c-13.238 3.9401-21.674 6.754-21.292 7.0992 0.34705 0.31448 8.8092 4.561 18.81 9.4477l17.959 14.499 50.056-19.721c0-0.21112-4.8029-2.2911-10.627-4.6121-5.8246-2.3206-15.631-6.238-21.787-8.7225l-11.18-4.5222z" />
    <path
       id="path6179"
       d="m168.35 26.309c-0.379 0.044998-0.759 0.166-1.124 0.28099l-165.88 55.46c-0.33301 0.58501-0.776 3.096-1.068 3.709-0.12399 0.399-0.138 0.638-0.16899 0.843-0.063004 0.409-0.10901 0.62599-0.11101 0.786v0.562c0.018005 0.22301 0.041 0.289 0.055008 0.39401 0.026001 0.209 0.082993 0.40099 0.112 0.618 0.060989 0.43399 0.164 0.96899 0.28099 1.686l28.995 162.05c0.25 1.363 1.007 2.663 2.079 3.541l1.798 1.461c33.854 26.334 65.097 54.489 99.008 81.027 0.48498 0.37802 0.84698 0.70801 1.18 0.95502 0.16602 0.125 0.29501 0.19598 0.50601 0.33801 0.104 0.070984 0.19699 0.19199 0.44998 0.33698 0.125 0.071014 0.34201 0.134 0.67401 0.28101 0.323 0.14002 0.54001 0.5 2.416 0.449v0.056h0.112v-0.056c0.14298-0.022003 1.646-0.198 2.304-0.50601 0.69-0.32098 1.184-0.74899 1.573-1.124l157.11-86.309c1.316-1.708 1.046-2.019 1.124-2.36 0.080994-0.34 0.089966-0.50598 0.112-0.67398 0.042969-0.33701 0.039001-0.582 0.054993-0.84302 0.036011-0.52298 0.037964-1.082 0.055969-1.798l-4.043-114.18-0.228-4.834-3.225 0.621-47.091 18.42c-0.64899-2.568-0.73599-2.944-0.092987-4.163l20.727-26.222c-0.143-0.36798 18.268-9.169 18.146-9.548-1.69-5.251 5.216-4.865 5.131-10.575l-4.159-31.242-114.51-39.221c-0.754-0.226-1.52-0.254-2.303-0.16899v-0.056z" />
    <path
       id="path6181"
       d="m168.97 0.0113a2.0725 2.0725 0 0 0 -0.56201 0.11101l-34.614 12.756a2.0725 2.0725 0 0 0 -0.56201 3.596l23.432 18.655a2.0725 2.0725 0 0 0 1.911 0.338l33.995-11.07a2.0725 2.0725 0 0 0 0.78699 -3.54l-22.814-20.341a2.0725 2.0725 0 0 0 -1.573 -0.506v0.000992z" />
    <path
       id="path6183"
       d="m81.258 59.457l3.1742 34.265-33.791-22.771 2.3339-31.79 28.282 20.296z" />
    <path
       id="path6185"
       d="m138.63 38.66l-57.369 20.796 3.174 34.266 57.424-20.789-3.229-34.273z" />
    <path
       id="path6187"
       d="m142.67 85.056l3.094 33.14-40.472-10.162-3.065-33.168 40.443 10.19z" />
    <path
       id="path6189"
       d="m142.67 85.057l3.0944 33.14 41.478-27.518-3.0884-33.177-41.484 27.555h0.000183z" />
    <path
       id="path6191"
       d="m132.62 15.076l25.399 18.407 2.8759 29.907-33.498-21.593 5.2237-26.721z" />
    <path
       id="path6193"
       d="m158.02 33.483l2.8759 29.907 23.187-12.867 9.7307-28.218-35.793 11.178z" />
    <path
       id="path6195"
       d="m199.76 25.915a2.2136 2.2136 0 0 0 -0.45001 0.11299l-35.85 13.149a2.2136 2.2136 0 0 0 -0.449 3.933l30.343 20.173a2.2136 2.2136 0 0 0 2.079 0.168l40.12-16.295a2.2136 2.2136 0 0 0 0.112 -3.99l-34.614-17.025a2.2136 2.2136 0 0 0 -1.292 -0.22501l0.001-0.001z" />
    <path
       id="path6197"
       d="m114.69 26.253c-0.133 0.020004-0.263 0.026993-0.393 0.054993l-59.225 10.171c-2.058 0.365-2.866 3.523-1.237 4.832l25.736 20.285c0.726 0.58699 1.762 0.763 2.641 0.45l56.978-14.722c1.03-0.383 1.772-1.439 1.784-2.538 0.016998-1.099-0.707-2.17-1.729-2.576l-23.487-15.733c-0.336-0.147-0.702-0.222-1.068-0.22501v0.001007z" />
    <path
       id="path6199"
       d="m234.71 45.114l2.861 30.978-40.118 16.276-2.858-30.937 40.115-16.317z" />
    <path
       id="path6201"
       d="m241.96 36.536a2.0105 2.0105 0 0 0 -0.95502 0.28101l-36.805 22.42a2.0105 2.0105 0 0 0 0.61801 3.708l38.322 8.541a2.0105 2.0105 0 0 0 1.461 -0.224l42.818-24.387a2.0105 2.0105 0 0 0 -0.73096 -3.709l-44.335-6.574a2.0105 2.0105 0 0 0 -0.393 -0.056z" />
    <path
       id="path6203"
       d="m243.57 69.492l42.941-25.081c0.66302 0.077194 1.171-0.64798 1.6935 0.30042l1.3196 58.294c0.044922 2.0944 0.20428 3.5143-2.2223 4.5974l-38.605 24.747-5.1271-62.857z" />
    <path
       id="path6205"
       fill="#ff007f"
       d="m169.11 2.1145l-34.57 12.723 23.417 18.64 34.016-11.032-22.864-20.331z" />
    <path
       id="path6207"
       fill="#0f0"
       d="m5.9442 87.485c-0.078995 0.107 2.057 12.404 4.735 27.341 4.212 23.489 5.017 27.299 6.03 28.086 1.381 1.073 26.261 13.788 26.89 13.743 0.23801-0.019989-1.469-12.244-3.778-27.16-2.309-14.917-4.356-27.463-4.555-27.882-0.34201-0.722-29.014-14.537-29.321-14.128h-0.001007z"
       style="fill:#009e0f;fill-opacity:1" />
    <path
       id="path6209"
       fill="#ff0"
       d="m39.978 103.28l0.136 2.08c0.076004 1.138 2.02 13.758 4.323 28.052l4.186 25.994 15.714 7.993c8.642 4.398 15.744 7.952 15.78 7.904 0.035995-0.046997-1.534-12.747-3.496-28.23l-3.565-28.162-16.54-7.815-16.54-7.815 0.002-0.001z"
       style="fill:#9900ff;fill-opacity:1" />
    <path
       id="path6211"
       fill="#0f0"
       d="m236.71 92.613c-3.776 0.944-57.388 21.17-58.05 21.93-0.199 0.23001 0.66501 9.813 1.933 21.306 1.269 11.493 2.62 24.344 3.008 28.557 0.38498 4.214 0.94998 7.616 1.237 7.565 0.29098-0.041992 12.988-5.239 28.212-11.532 15.224-6.294 27.787-11.589 27.921-11.768 0.42099-0.56198-3.56-55.722-4.049-56.089-0.027985-0.022003-0.092987-0.020004-0.21201 0.029999v0.001007z"
       style="fill:#009e0f;fill-opacity:1" />
    <path
       id="path6213"
       fill="#00f"
       d="m77.121 120.88l3.796 28.109c2.846 21.107 4.007 28.292 4.654 28.857 1.048 0.914 33.239 17.412 33.903 17.374 0.26001-0.02002-0.996-10.296-2.786-22.847-1.792-12.55-3.458-25.562-3.712-28.912l-0.455-6.093-1.738-0.385c-0.94898-0.21402-8.101-3.55-15.888-7.414s-14.957-7.402-15.952-7.86l-1.822-0.829z"
       style="fill:#2b78e4;fill-opacity:1" />
    <path
       id="path6215"
       fill="#9900ff"
       d="m173.53 116.58c-2.8907 0.38776-55.239 20.866-55.827 21.83-0.49271 0.80798 0.30011 7.6495 3.4182 29.489 2.2336 15.644 4.2723 28.419 4.5273 28.38 0.25604-0.035614 12.535-5.0438 27.3-11.124 14.764-6.0807 27.04-11.329 27.264-11.654 0.22424-0.32498-0.89673-11.954-2.4816-25.841-1.5848-13.887-2.925-26.597-2.9831-28.244-0.091705-2.5717-0.26379-2.9664-1.2168-2.8359z"
       style="opacity:0.92;fill:#9900ff;fill-opacity:1" />
    <path
       id="path6217"
       fill="#00f"
       d="m17.191 148.65c-0.37701 0.50101 7.783 46.999 8.714 49.661 0.556 1.589 3.048 3.442 13.906 10.31l13.233 8.367-1.076-8.657c-0.595-4.76-2.501-17.109-4.237-27.452l-3.161-18.814-13.541-6.917c-7.447-3.803-13.671-6.721-13.837-6.499l-0.001 0.001z"
       style="fill:#2b78e4;fill-opacity:1" />
    <g
       fill="#ff0"
       id="g4282"
       style="fill:#9900ff;fill-opacity:1">
      <path
         id="path6219"
         d="m49.495 164.8c-0.059402 0.13071 1.7952 12.575 4.1438 27.643 3.2817 21.155 4.4512 27.544 5.1564 28.072 0.50241 0.37668 7.4061 4.7972 15.34 9.8088l14.428 9.1071-1.5291-13.483c-0.84116-7.4133-2.5186-20.66-3.7259-29.425l-2.1935-15.922-15.758-8.0264c-8.6664-4.4109-15.802-7.9058-15.861-7.7741z"
         style="fill:#9900ff;fill-opacity:1" />
      <path
         id="path6221"
         d="m292.02 132.61c-0.72736 0.10495-46.106 18.631-46.361 18.935-0.13663 0.16437 3.809 58.822 4.0922 60.835 0.093506 0.65848 0.48044 0.98563 0.90085 0.76245 0.40494-0.21506 9.9092-4.3558 21.121-9.193 11.211-4.8374 20.709-9.0748 21.11-9.4093 0.49176-0.41052 0.5885-9.9307 0.27692-29.264-0.25391-15.757-0.46198-29.57-0.4436-30.706 0.021606-1.3522-0.21161-2.0247-0.69568-1.96z"
         style="fill:#9900ff;fill-opacity:1" />
    </g>
    <path
       id="path6223"
       fill="#ff7f00"
       d="m241.31 153.28l-27.881 11.485c-15.338 6.317-28.005 11.626-28.135 11.798-0.258 0.345 4.8 48.157 5.995 56.682l0.737 5.34 26.568-11.536c14.614-6.346 26.714-11.729 26.884-11.956 0.29898-0.39899-3.246-54.972-3.868-59.54l-0.299-2.273h-0.000977z"
       style="fill:#ff9900;fill-opacity:1" />
    <path
       id="path6225"
       fill="#9900ff"
       d="m85.554 183c-0.15701 0.021973 1.651 13.521 4.025 29.996l4.317 29.955 17.183 10.793 17.182 10.792-0.756-8.069c-0.41101-4.436-2.259-18.874-4.105-32.084l-3.349-24.014-17.103-8.705c-9.41-4.786-17.238-8.686-17.393-8.664h-0.000977z"
       style="opacity:0.92;fill:#009e0f;fill-opacity:1" />
    <path
       id="path6227"
       fill="#f00"
       d="m180.81 178.59c-0.2868-0.21527-54.498 21.84-54.735 22.268-0.039612 0.069305 1.7474 14.247 3.9614 31.49 3.9715 30.928 4.024 31.346 5.1784 30.861 0.64337-0.2717 12.719-5.5125 26.831-11.632l25.656-11.127-0.5508-6.6336c-0.98358-11.516-5.9737-54.952-6.3407-55.227z"
       style="fill:#009e0f;fill-opacity:1" />
    <path
       id="path6229"
       fill="#ff7f00"
       d="m27.34 206.56c-0.024994 0-0.021988 0.029999-0.019989 0.044006-0.018005 0.482 1.756 10.828 3.954 22.977l4.004 22.08 1.796 1.486c0.98599 0.811 6.927 5.7 13.213 10.864l11.437 9.376-1.48-11.748c-0.814-6.468-2.533-17.916-3.848-25.428l-2.386-13.658-13.318-8.414c-7.519-4.744-13.004-7.851-13.358-7.577l0.006-0.002z"
       style="fill:#ff9900;fill-opacity:1" />
    <g
       fill="#f00"
       id="g4290"
       style="fill:#2b78e4;fill-opacity:1">
      <path
         id="path6231"
         d="m59.394 225.96l1.472 11.69c0.80901 6.438 2.564 18.139 3.927 25.991l2.475 14.278 14.801 12.143 14.821 12.14-0.773-8.186c-0.423-4.504-2.04-17.327-3.596-28.513l-2.825-20.347-15.151-9.598-15.151-9.598z"
         style="fill:#2b78e4;fill-opacity:1" />
      <path
         id="path6233"
         d="m292.48 200.02c-1.964 0.41998-7.342 2.674-20.763 8.508-11.805 5.133-21.497 9.379-21.539 9.451-0.043976 0.071014 0.651 10.575 1.55 23.34 0.89899 12.766 1.689 24.884 1.766 26.934 0.13202 3.48 0.21701 3.697 1.256 3.107 0.612-0.34802 9.579-5.268 19.923-10.923s19.022-10.562 19.292-10.912c0.51001-0.66199 0.036987-47.691-0.49603-49.369-0.062012-0.198-0.33398-0.276-0.98901-0.13501v-0.000977z"
         style="fill:#2b78e4;fill-opacity:1" />
    </g>
    <path
       id="path6235"
       fill="#00f"
       d="m245.8 220.03c-0.42502-0.15601-52.985 22.632-53.308 23.114-0.12201 0.17999 1.039 11.411 2.573 24.957 1.534 13.545 2.918 26.677 3.078 29.181 0.16 2.503 0.44699 4.529 0.642 4.502 0.199-0.029999 11.726-6.275 25.621-13.875l25.254-13.802 0.05-2.007c0.065979-3.796-3.55-51.936-3.91-52.07z"
       style="fill:#2b78e4;fill-opacity:1" />
    <path
       id="path6237"
       fill="#0f0"
       d="m94.508 248.35c-0.31-0.069 1.303 13.012 3.595 29.068l4.17 29.203 17.407 14.305c9.574 7.871 17.577 14.299 17.781 14.291 0.20401 0-1.006-10.978-2.69-24.386-1.682-13.407-3.583-28.033-4.224-32.502l-1.186-8.127-17.152-10.856c-9.436-5.971-17.397-10.923-17.706-10.995l0.005-0.001z"
       style="fill:#009e0f;fill-opacity:1" />
    <path
       id="path6239"
       fill="#ff7f00"
       d="m188.22 245.12c-0.23502-0.176-16.049 6.584-52.399 22.41-0.97702 0.426-0.74902 2.517 3.521 32.425 2.52 17.656 4.796 31.824 5.076 31.668 0.27802-0.155 11.783-6.441 25.567-13.966l25.054-13.676-0.513-3.768c-0.29501-2.066-1.768-15.254-3.274-29.311s-2.866-25.662-3.027-25.783l-0.005 0.001z"
       style="fill:#ff9900;fill-opacity:1" />
    <g
       fill="#ff007f"
       id="g4297"
       style="fill:#e06666;fill-opacity:1">
      <path
         id="path6241"
         d="m56.668 67.631l-21.622 6.7895c-11.893 3.7399-21.753 6.9643-21.905 7.1667-0.15109 0.20122 0.17447 0.56064 0.72609 0.7874 0.5522 0.22635 6.2188 2.9507 12.585 6.0438 6.3655 3.0931 11.994 5.5688 12.509 5.5199 0.51588-0.047501 10.434-3.474 22.038-7.621 11.605-4.1473 21.282-7.7347 21.492-7.9789 0.20981-0.24437-5.5136-2.7679-12.717-5.5894l-13.106-5.118z"
         style="fill:#e06666;fill-opacity:1" />
      <path
         id="path6243"
         d="m133.41 97.699l-23.422 9.4424c-12.89 5.1941-23.414 9.6061-23.372 9.7917 0.11328 0.50244 28.842 14.274 29.565 14.173 0.34146-0.047516 12.104-4.4354 26.13-9.7495 14.026-5.3143 25.567-9.7618 25.656-9.8802 0.088104-0.11685-7.6495-3.2607-17.194-6.9895l-17.363-6.7875z"
         style="fill:#e06666;fill-opacity:1" />
      <path
         id="path6245"
         d="m88.171 80.953c-0.68851 0.26556-10.617 3.8245-22.058 7.9014-11.44 4.0764-21.072 7.5325-21.395 7.6874-0.32297 0.15645 7.6716 4.2427 17.748 9.0688l18.319 8.7694 17.994-7.2418c9.9042-3.9792 20.376-8.1783 23.258-9.34 2.8816-1.1613 4.9869-2.2885 4.6904-2.5111-0.29669-0.222-8.8124-3.6512-18.927-7.6131-12.547-4.9149-18.777-7.0519-19.631-6.7212z"
         style="fill:#e06666;fill-opacity:1" />
      <path
         id="path6247"
         d="m143.1 52.198l-40.886 22.669 40.433 10.164 41.504-27.522-41.05-5.3103z"
         style="fill:#e06666;fill-opacity:1" />
      <path
         id="path6249"
         d="m200.1 28.106l-35.86 13.158 30.346 20.16 40.123-16.302-34.608-17.016z"
         style="fill:#e06666;fill-opacity:1" />
      <path
         id="path6251"
         d="m114.75 29.033l-59.208 10.118 25.714 20.303 57.177-13.146-23.683-17.275z"
         style="fill:#e06666;fill-opacity:1" />
      <path
         id="path6253"
         d="m242.08 38.558l-36.833 22.413 38.332 8.5221 42.821-24.348-44.321-6.5879z"
         style="fill:#e06666;fill-opacity:1" />
      <path
         id="path6255"
         d="m195.3 72.865l-27.718 11.105c-15.245 6.1094-27.694 11.275-27.666 11.474 0.028687 0.19804 7.8013 3.3755 17.266 7.0782l17.197 6.7318 28.802-10.864c15.833-5.9825 28.881-11.016 28.996-11.169 0.11505-0.15446-8.1336-3.4476-18.33-7.3224l-18.547-7.0341z"
         style="fill:#e06666;fill-opacity:1" />
    </g>
    <path
       id="path6257"
       fill="#0f0"
       d="m286.63 50.329l-42.201 24.528 4.2811 54.585 38.669-24.717-0.7495-54.396z"
       style="fill:#009e0f;fill-opacity:1" />
  </g>
</svg>
